<svg width="36" height="36" viewBox="0 0 36 36" fill="none" xmlns="http://www.w3.org/2000/svg">
<g clip-path="url(#clip0_371_109)">
<path d="M18 34.001C14.5692 34.001 12.1004 33.9993 10.1755 33.8126C8.27273 33.6281 7.05552 33.2737 6.08412 32.6633C4.97388 31.9658 4.03508 31.027 3.33745 29.9169C2.72727 28.9455 2.37261 27.7283 2.18836 25.8255C2.0017 23.9006 2 21.4318 2 18.001C2 14.5702 2.0017 12.1013 2.18836 10.1765C2.37261 8.2737 2.72727 7.05649 3.33745 6.0851C4.03505 4.97483 4.97385 4.03602 6.08412 3.33843C7.05552 2.72825 8.27273 2.37358 10.1755 2.18934C12.1001 2.00267 14.569 2.00098 18 2.00098C21.4308 2.00098 23.8996 2.00267 25.8245 2.18934C27.7273 2.37358 28.9445 2.72825 29.9159 3.33843C31.0261 4.03605 31.9648 4.97486 32.6623 6.0851C33.2727 7.05649 33.6272 8.2737 33.8116 10.1765C33.9983 12.1013 34 14.5702 34 18.001C34 21.4318 33.9983 23.9006 33.8116 25.8255C33.6272 27.7283 33.2727 28.9455 32.6623 29.9169C31.9648 31.027 31.026 31.9657 29.9159 32.6633C28.9445 33.2737 27.7273 33.6281 25.8245 33.8126C23.8996 33.9993 21.4308 34.001 18 34.001Z" stroke="#FFFCFC" stroke-width="3"/>
<path d="M18.0003 25.273C22.0169 25.273 25.273 22.0169 25.273 18.0003C25.273 13.9836 22.0169 10.7275 18.0003 10.7275C13.9836 10.7275 10.7275 13.9836 10.7275 18.0003C10.7275 22.0169 13.9836 25.273 18.0003 25.273Z" stroke="#FFFCFC" stroke-width="3"/>
<path d="M27.0723 7.36523C27.514 7.36523 27.872 7.7233 27.8721 8.16504C27.8721 8.60687 27.5141 8.96484 27.0723 8.96484C26.6305 8.96474 26.2725 8.6068 26.2725 8.16504C26.2726 7.72337 26.6306 7.36534 27.0723 7.36523Z" fill="#FFFCFC" stroke="#FFFCFC" stroke-width="2"/>
</g>
<defs>
<clipPath id="clip0_371_109">
<rect width="36" height="36" fill="white" transform="translate(0 0.000976562)"/>
</clipPath>
</defs>
</svg>
