<svg width="32" height="32" viewBox="0 0 32 32" fill="none" xmlns="http://www.w3.org/2000/svg">
<path d="M23.2615 19.1798C22.8535 18.9878 20.8989 18.0278 20.5338 17.8785C20.1686 17.7292 19.9109 17.6865 19.6316 18.0918C19.3524 18.4971 18.6007 19.3718 18.3644 19.6491C18.1281 19.9265 17.9134 19.9478 17.5053 19.6491C16.3331 19.1819 15.2506 18.518 14.3049 17.6865C13.4489 16.886 12.7242 15.9575 12.1571 14.9345C11.9208 14.5505 12.1571 14.3372 12.3289 14.1239C12.5007 13.9106 12.7155 13.6759 12.9303 13.4412C13.0874 13.2383 13.2173 13.016 13.3169 12.7799C13.3702 12.6701 13.3979 12.5498 13.3979 12.4279C13.3979 12.306 13.3702 12.1857 13.3169 12.0759C13.3169 11.8839 12.4148 9.94262 12.0711 9.1533C11.7275 8.36398 11.4268 8.47065 11.1905 8.47065H10.3314C9.9221 8.4865 9.53587 8.66296 9.25744 8.96131C8.80801 9.38727 8.45203 9.90084 8.21178 10.4698C7.97154 11.0388 7.85223 11.651 7.86132 12.2679C7.97119 13.7825 8.5319 15.2305 9.47223 16.4278C11.1978 18.9738 13.5585 21.0318 16.3239 22.4011C17.269 22.8064 17.9993 23.0411 18.5792 23.2331C19.3935 23.4775 20.2543 23.5287 21.0922 23.3824C21.6487 23.2703 22.1761 23.0458 22.6416 22.7228C23.1071 22.3999 23.5009 21.9854 23.7985 21.5051C24.0462 20.9119 24.1278 20.2633 24.0348 19.6278C23.9274 19.4785 23.6696 19.3718 23.2615 19.1798Z" fill="#FFFCFC"/>
<path d="M27.2779 4.65211C25.7925 3.16282 24.0219 1.98405 22.0705 1.18532C20.119 0.386587 18.0263 -0.015925 15.9157 0.00152029C13.1198 0.0160522 10.3767 0.758909 7.96031 2.1559C5.54393 3.55289 3.53886 5.55511 2.14537 7.96259C0.751887 10.3701 0.0187505 13.0986 0.0191883 15.8755C0.0196262 18.6525 0.753623 21.3807 2.14787 23.7878L0 32.001L8.46261 29.8677C10.8021 31.1321 13.4241 31.7923 16.0875 31.7876H15.9157C19.0901 31.8082 22.1987 30.8893 24.8451 29.148C27.4916 27.4068 29.5559 24.9221 30.7749 22.0109C31.9938 19.0998 32.3122 15.894 31.6894 12.8023C31.0666 9.71069 29.5308 6.87335 27.2779 4.65211ZM15.9157 29.057C13.5328 29.0589 11.1941 28.4174 9.14992 27.2011L8.67739 26.9237L3.65138 28.225L4.98306 23.3611L4.68236 22.8705C2.96697 20.1267 2.32531 16.853 2.87911 13.6704C3.43291 10.4879 5.14364 7.618 7.68672 5.60523C10.2298 3.59246 13.4283 2.57688 16.6753 2.75116C19.9224 2.92545 22.992 4.27749 25.3019 6.55074C26.5402 7.77076 27.5217 9.22336 28.1892 10.8239C28.8566 12.4244 29.1967 14.1409 29.1895 15.8733C29.1839 19.3681 27.7836 22.7181 25.2955 25.1894C22.8074 27.6606 19.4344 29.0514 15.9157 29.057Z" fill="#FFFCFC"/>
</svg>
